<?xml version="1.0" encoding="UTF-8" standalone="no"?>
<!DOCTYPE svg PUBLIC "-//W3C//DTD SVG 1.1//EN" "http://www.w3.org/Graphics/SVG/1.1/DTD/svg11.dtd">
<!-- Created with Vectornator (http://vectornator.io/) -->
<svg height="100%" stroke-miterlimit="10" style="fill-rule:nonzero;clip-rule:evenodd;stroke-linecap:round;stroke-linejoin:round;" version="1.1" viewBox="0 0 611 408" width="100%" xml:space="preserve" xmlns="http://www.w3.org/2000/svg" xmlns:xlink="http://www.w3.org/1999/xlink">
<defs/>
<clipPath id="ArtboardFrame">
<rect height="408" width="611" x="0" y="0"/>
</clipPath>
<g clip-path="url(#ArtboardFrame)" id="Untitled">
<path d="M370 409C246.667 409 123.833 409 1.00007 409C1.00004 273 1.00004 137 1.00002 1.00014C204.667 1.00009 408.333 1.00009 612 1.00005C612 137 612 273 612 409C531.5 409 451 409 370 409M565.595 284.204C565.628 284.801 565.66 285.398 565.692 285.995C566.378 285.86 567.064 285.725 568.012 285.536C568.012 285.536 568.171 285.32 568.672 285.268C568.843 284.697 569.013 284.126 569.184 283.555C568.763 283.532 568.343 283.508 567.454 283.376C567.103 283.399 566.839 283.561 565.595 284.204M223.303 80.9972C222.856 81.0061 222.409 81.015 221.179 81C220.831 81.4607 220.163 81.9372 220.184 82.3798C220.399 86.7519 220.728 91.1183 221.06 95.9977C224.7 98.059 229.001 100.565 229.789 105.96C227.533 107.209 225.57 108.296 222.91 109.768C222.192 108.312 220.176 106.137 220.624 104.77C221.866 100.979 219.673 100.175 217.304 98.9646C213.903 103.825 214.217 107.359 217.86 111.704C218.72 112.73 218.779 114.428 218.651 116.288C215.577 119.445 212.503 122.602 208.974 126.097C208.661 126.765 208.347 127.433 207.245 128.165C206.793 126.79 206.34 125.414 206.041 123.186C205.492 119.804 204.942 116.422 204.563 112.514C204.346 112.02 204.128 111.526 203.963 110.248C203.42 108.513 202.878 106.778 202.437 104.432C202.115 103.69 201.794 102.949 201.426 101.516C197.29 94.156 194.176 85.9292 188.817 79.6059C175.387 63.7607 157.626 54.1312 137.56 49.5159C130.047 47.7879 121.907 46.4201 113.429 48.8937C112.105 49.0591 110.78 49.2246 108.73 49.4677C106.508 50.5816 104.152 51.4912 102.085 52.8427C89.2707 61.2221 84.8213 77.4105 91.647 90.4489C97.1538 100.968 109.055 105.819 118.286 100.913C116.546 100.821 115.2 100.751 113.854 100.68C109.233 100.437 105.064 99.0284 101.628 96.7541C97.3403 93.9168 94.193 89.7314 92.7303 84.7777C91.8182 81.6883 91.5612 78.3002 92.0916 74.7538C93.8115 63.2545 100.747 55.6533 112.118 51.6794C113.061 51.3811 114.005 51.0827 115.864 50.858C118.922 50.8493 121.981 50.8405 125.485 51.1596C126.021 51.1585 126.558 51.1575 127.688 51.5296C128.147 51.591 128.605 51.6524 129.478 52.0849C130.017 52.1393 130.556 52.1937 131.705 52.7123C136.865 55.9829 142.606 58.6091 147.077 62.6437C161.081 75.2821 165.875 92.2308 166.84 110.268C167.853 129.214 167.895 148.211 168.342 167.187C168.403 169.764 168.351 172.345 168.351 175.149C156.303 173.392 148.532 167.524 145.732 154.364C144.399 157.42 143.706 158.885 143.114 160.389C140.379 167.344 136.319 173.418 130.432 178.02C111.645 192.707 90.8928 203.198 67.1127 207.033C62.8809 207.715 58.648 208.39 53.1425 209.272C58.1146 210.974 61.8886 212.182 65.6003 213.557C70.8181 215.491 73.3148 218.859 73.2593 224.892C73.0587 246.706 73.2443 268.527 73.5665 290.341C73.6437 295.567 72.2584 299.765 68.4682 303.277C63.0267 308.32 57.6338 313.415 51.7578 318.921C53.2583 318.921 54.1785 318.93 55.0985 318.919C62.7031 318.826 70.3821 318.005 77.8975 318.777C96.4055 320.679 113.05 328.562 129.551 336.508C136.504 339.857 143.428 343.636 145.395 352.883C155.543 321.502 198.985 293.078 230.899 291.706C232.994 304.472 235.089 317.238 236.872 330.643C235.914 331.954 234.956 333.265 233.998 334.577C249.155 325.914 265.004 321.013 282.719 320.76C291.335 319.538 297.867 321.868 300.366 331.165C302.094 331.012 303.822 330.859 305.774 330.686C305.993 327.443 305.275 323.683 310.182 323.813C313.29 323.895 316.402 323.828 319.587 323.828C319.49 324.728 319.391 325.642 319.267 326.788C320.562 326.642 321.61 326.523 323.431 326.317C323.681 330.035 323.909 333.436 324.172 337.357C325.265 337.969 327.576 338.964 329.541 340.425C334.215 343.9 339.154 343.565 344.268 341.908C346.154 341.296 348.003 340.57 349.875 339.914C357.426 337.271 364.993 334.672 372.522 331.966C374.063 331.412 375.465 330.468 377.258 330.45C382.026 333.854 386.023 330.233 390.462 329.343C395.604 328.312 396.251 325.924 395.036 321.096C397.674 317.814 399.775 313.59 405.353 315.925C405.994 316.193 407.309 315.028 408.234 314.411C414.351 310.33 418.742 303.821 426.362 302.444C424.728 304.855 423.467 307.665 421.392 309.605C413.985 316.537 406.27 323.14 398.749 329.953C397.302 331.264 396.204 332.961 394.2 335.379C435.566 313.351 475.096 315.768 515.238 336.818C516.418 335.318 518.475 332.96 520.249 330.404C532.036 313.42 545.977 298.701 564.018 288.191C564.998 287.621 565.436 286.12 566.126 285.052C565.702 284.656 565.279 284.26 564.856 283.864C560.015 286.919 555.225 290.061 550.3 292.974C548.894 293.806 546.901 294.702 545.506 294.332C533.056 291.027 520.784 286.997 508.246 284.105C500.177 282.245 491.735 282.048 483.488 280.903C476.14 279.882 474.503 277.949 474.5 271C474.491 245.841 474.477 220.681 474.528 195.522C474.532 193.506 475.015 191.492 475.487 187.839C490.357 202.973 501.058 220.902 522.403 226.021C516.595 232.374 511.22 238.461 505.617 244.332C497.986 252.328 496.347 252.267 488.169 244.499C487.959 244.299 487.613 244.242 487.018 243.983C484.512 246.699 481.94 249.487 479.449 252.188C484.192 259.968 488.482 261.199 495.751 256.822C498.873 254.942 502.101 252.949 504.587 250.345C522.971 231.087 541.186 211.666 559.418 192.262C559.866 191.785 559.898 190.917 560.382 189.447C552.019 193.066 545.796 189.286 539.949 185.107C533.338 180.382 527.025 175.224 520.732 170.07C513.82 164.407 510.137 157.334 512.035 148.107C512.068 147.947 511.681 147.702 511.7 147.722C507.842 152.188 504.24 156.952 500.034 161.104C491.629 169.404 482.829 177.303 474.307 185.487C460.635 198.617 445.088 208.978 428.158 216.379C428.04 215.4 427.564 214.289 427.866 213.463C429.546 208.865 422.698 203.811 428.93 199.206C427.001 199.293 425.585 200.016 424.109 200.174C422.853 200.309 420.465 199.96 420.399 199.539C419.852 196.055 419.728 192.504 419.363 187.379C416.129 185.867 411.722 184.22 407.801 181.789C405.985 180.663 405.116 178.01 403.912 176.191C404.987 174.755 405.793 173.676 406.871 172.235C403.534 172.062 400.825 171.922 398.115 171.782C397.868 171.334 397.622 170.885 397.375 170.436C399.374 168.13 401.372 165.824 403.437 163.442C399.277 162.045 395.106 160.644 390.913 159.236C391.134 158.526 391.407 157.649 391.283 158.049C388.839 155.646 386.63 154.083 385.249 151.976C383.062 148.64 382.168 144.137 379.39 141.583C375.176 137.71 369.832 135.059 364.936 131.939C362.788 130.571 359.126 129.655 361.477 126.27C363.218 123.762 366.603 120.145 368.687 120.488C383.71 122.957 395.292 116.398 406.001 107.408C415.857 99.134 425.377 90.4622 435.872 81.2393C434.811 79.8935 432.926 77.5013 430.816 74.8246C433.869 73.5116 436.845 72.232 438.997 71.3066C439.748 66.6123 440.371 62.7181 440.926 59.2509C438.684 58.4389 437.006 57.5772 435.228 57.2296C425.866 55.3995 417.311 48.5778 406.734 53.9946C402.731 56.0445 398.441 56.5883 397.873 61.7524C397.789 61.7028 397.705 61.6532 397.621 61.6036C397.76 61.7263 397.9 61.8489 397.926 62.7105C397.235 63.946 396.855 65.6831 395.803 66.3331C390.158 69.8216 385.092 74.9188 378.829 73.3862C376.617 76.1847 375.418 78.7373 373.408 80.0106C370.119 82.0943 368.023 79.1757 365.908 76.741C365.83 76.7792 365.751 76.8175 365.673 76.8557C365.796 76.8935 365.918 76.9314 365.911 77.6874C365.35 78.9632 364.789 80.2389 364.229 81.5147C363.711 81.4268 363.194 81.3388 362.676 81.2509C362.329 78.2951 361.982 75.3392 361.488 71.1329C355.631 79.7225 349.526 74.3199 343.55 73.122C341.277 72.6662 338.961 72.1986 336.662 72.1798C335.338 72.1689 333.658 72.6899 332.745 73.5882C329.919 76.3694 327.987 74.9547 326.257 72.5279C323.119 68.1259 319.406 64.9818 313.563 64.9629C312.342 64.9589 310.527 63.5418 310.035 62.3447C309.045 59.9329 308.887 57.1929 308.162 54.6523C307.805 53.4004 306.957 51.3102 306.316 51.3043C304.514 51.288 302.403 51.7444 300.978 52.7859C299.346 53.9788 298.32 56.0013 296.771 57.9991C296.009 56.1049 295.49 54.8157 294.978 53.544C293.205 54.6131 291.678 55.5337 289.142 57.0625C288.711 51.0634 288.235 46.2285 288.057 41.3827C287.926 37.845 281.618 30.3428 278.358 31.3205C272.864 32.9683 269.969 30.601 267.474 26.1214C267.009 30.8355 269.292 33.5047 272.319 36.1455C274.109 37.707 275.378 40.2499 276.028 42.5886C276.413 43.976 275.14 45.8245 274.613 47.4656C273.281 46.4293 271.49 45.6614 270.699 44.3089C267.759 39.2838 265.435 33.8842 262.328 28.9745C259.455 24.4348 256.188 19.9234 249.865 19.0515C249.221 18.6982 248.578 18.3449 247.854 17.3209C246.892 16.7792 245.369 15.5535 245.058 15.808C243.198 17.3307 241.617 19.1944 239.31 21.2525C238.173 22.7817 237.036 24.3108 236.48 25.0587C232.954 25.0587 230.066 25.0587 227.611 25.0587C230.023 30.117 236.338 32.888 234.296 41.1256C231.409 39.3454 229.177 37.8698 226.85 36.5616C224.555 35.2716 222.11 33.2362 220.096 36.3628C221.859 38.4286 223.337 40.1601 224.815 41.8915C222.904 42.9365 220.912 43.8618 219.12 45.0805C218.31 45.6309 217.265 46.9238 217.435 47.6019C217.806 49.0838 218.607 50.722 219.749 51.6795C221.163 52.865 223.101 53.4256 223.597 53.6662C223.899 56.8285 223.802 58.7431 224.314 60.4777C225.054 62.9808 226.236 65.3533 227.055 67.9521C227.055 67.9521 226.886 68.1277 226.224 68.0058C223.503 66.5236 222.947 68.3493 223.262 70.3005C223.561 72.1569 224.582 73.8971 224.927 76.226C224.526 77.1355 224.124 78.045 223.898 79.6254C223.923 80.0849 223.948 80.5445 223.303 80.9972M425.386 353.008C412.872 345.267 399.859 344.958 386.829 351.183C370.676 358.9 369.409 379.87 384.211 389.805C393.129 395.79 403.147 396.285 413.069 394.55C422.991 392.814 431.552 387.781 434.444 377.317C437.075 367.795 433.878 359.6 425.386 353.008M326.482 348.838C319.393 348.838 312.304 348.838 305.193 348.838C305.193 364.255 305.193 378.82 305.193 394.393C317.182 393.858 328.862 394.075 340.318 392.58C348.653 391.493 355.265 386.246 356.784 377.289C358.387 367.829 357.223 358.84 348.2 352.947C341.873 348.814 334.678 348.721 326.482 348.838M177.478 347.838C171.428 348.26 165.185 347.898 159.38 349.321C153.373 350.794 150.462 356.269 150.905 361.931C151.282 366.737 154.012 369.596 160.625 371.058C167.922 372.671 175.374 373.587 182.658 375.248C186.405 376.102 191.127 376.928 191.046 382.192C190.969 387.173 186.598 388.305 182.774 389.548C181.683 389.903 180.491 390 179.335 390.09C168.294 390.953 158.448 388.723 151.602 379.063C147.515 380.107 147.047 381.895 149.637 385.013C158.152 395.263 178.699 398.828 190.142 391.882C193.937 389.577 196.267 386.407 196.203 381.694C196.115 375.191 192.936 371.883 184.181 370.136C177.175 368.737 169.997 368.077 163.105 366.282C160.502 365.604 157.072 363 156.523 360.681C155.621 356.866 159.158 354.381 162.645 353.333C171.484 350.676 179.702 351.652 186.896 358.1C187.858 358.963 189.818 358.712 191.316 358.976C191.064 357.403 191.358 354.969 190.467 354.404C186.603 351.956 182.394 350.053 177.478 347.838M465.19 352.049C469.62 354.088 474.542 355.481 478.326 358.367C481.456 360.754 482.426 359.622 484.059 357.529C477.029 346.269 456.296 343.307 446.722 352.008C440.25 357.891 441.95 367.518 450.198 370.363C454.089 371.705 458.294 372.123 462.339 373.036C467.833 374.276 473.416 375.271 478.733 377.051C480.492 377.639 482.588 380.307 482.63 382.07C482.673 383.859 480.754 386.389 479.007 387.367C476.345 388.857 473.138 389.805 470.081 390.078C459.352 391.035 450.038 388.067 443.503 379.068C439.322 380.082 439.383 382.154 441.585 384.839C445.779 389.956 451.313 393.048 457.65 394.247C466.605 395.941 475.636 396.374 483.542 390.574C490.681 385.337 489.844 376.368 481.92 372.436C479.71 371.34 477.286 370.524 474.869 370.021C468.206 368.636 461.401 367.834 454.852 366.063C452.368 365.391 448.606 362.624 448.676 360.948C448.78 358.485 451.316 355.187 453.694 353.991C456.782 352.438 460.733 352.6 465.19 352.049M299.012 373.295C299.015 366.309 299.128 359.319 298.912 352.339C298.876 351.165 297.418 350.035 296.617 348.885C295.69 350.074 294.013 351.233 293.962 352.46C293.69 358.936 293.937 365.432 293.796 371.917C293.634 379.359 291.616 386.266 283.653 388.425C278.532 389.814 272.72 390.275 267.52 389.385C259.057 387.936 255.019 382.05 254.903 373.362C254.813 366.542 255.001 359.717 254.762 352.905C254.714 351.538 253.3 350.22 252.516 348.879C251.642 350.114 250.043 351.33 250.011 352.586C249.807 360.731 249.657 368.901 250.114 377.028C250.29 380.16 251.454 383.669 253.284 386.198C259.487 394.768 268.725 395.66 278.361 395.043C288.255 394.41 299.328 386.722 299.012 373.295M244.818 353.713C245.452 352.566 246.085 351.419 246.719 350.272C245.615 349.794 244.514 348.909 243.407 348.901C229.417 348.807 215.426 348.783 201.437 348.945C200.286 348.959 199.151 350.456 198.009 351.263C199.114 352.109 200.178 353.612 201.333 353.686C205.812 353.973 210.331 354.005 214.813 353.745C218.392 353.536 219.375 354.922 219.315 358.349C219.135 368.672 219.354 379.002 219.201 389.326C219.139 393.533 220.74 394.695 225.027 393.246C225.027 386.734 225.027 380.273 225.027 373.811C225.027 367.362 225.027 360.913 225.027 353.789C231.718 353.789 237.825 353.789 244.818 353.713M363.013 385.432C363.013 386.931 362.702 388.519 363.1 389.903C363.51 391.327 364.611 392.552 365.41 393.864C366.338 392.502 368.05 391.153 368.073 389.775C368.283 377.459 368.268 365.136 368.088 352.818C368.069 351.499 366.569 350.201 365.757 348.893C364.842 350.256 363.163 351.603 363.134 352.985C362.912 363.469 363.013 373.96 363.013 385.432M119.155 82.581C115.224 82.3305 112.281 84.1137 112.366 88.0216C112.509 94.6369 118.374 91.5375 122.332 92.6216C121.514 94.9995 120.817 97.0281 119.905 99.6796C123.948 98.458 126.067 96.2769 126.322 92.5774C126.655 87.7394 124.748 84.2302 119.155 82.581M219.53 79.449C219.53 79.449 219.601 79.5811 219.53 79.449Z" fill="#fff9f9" fill-opacity="0" fill-rule="nonzero" opacity="1" stroke="none"/>
<path d="M237.184 330.005C235.089 317.238 232.994 304.472 230.804 290.921C230.439 288.468 230.168 286.799 229.872 284.71C228.326 274.711 226.893 265.118 225.233 255.564C224.659 252.26 223.521 249.055 222.464 245.458C221.797 240.176 222.508 234.654 220.463 230.482C218.601 226.681 218.994 225.091 221.424 222.851C221.041 221.1 221.539 219.549 221.851 217.962C222.469 214.814 223.21 211.654 218.698 210.523C216.7 210.023 214.852 208.927 212.72 208.007C213.746 206.544 214.427 205.572 215.109 204.601C214.589 204.711 214.069 204.821 213.549 204.93C211.814 200.837 210.079 196.743 208.519 193.063C211.933 191.719 214.264 190.801 216.785 189.808C217.235 190.614 217.798 191.624 218.705 193.25C223.196 185.698 215.777 184.016 213.121 180.193C216.355 179.782 219.168 179.425 222.064 179.057C220.476 169.178 213.028 175.979 208.278 173.495C211.121 171.923 213.324 170.705 215.526 169.487C215.066 169.366 214.606 169.246 214.146 169.125C214.146 166.114 213.188 162.664 214.327 160.175C217.648 152.924 215.528 147.081 211.225 141.291C210.101 139.778 209.45 137.914 208.582 136.212C211.441 134.611 213.796 133.293 216.176 131.96C215.267 130.286 214.649 129.147 214.435 127.985C217.363 128.076 219.886 128.191 222.72 128.32C222.022 126.652 221.55 125.525 221.053 124.338C222.413 124.135 223.504 123.971 225.701 123.642C223.217 120.65 221.211 118.234 219.206 115.818C218.779 114.428 218.72 112.73 217.86 111.704C214.217 107.359 213.903 103.825 217.304 98.9646C219.673 100.175 221.866 100.979 220.624 104.77C220.176 106.137 222.192 108.312 222.91 109.768C225.57 108.296 227.533 107.209 229.789 105.96C229.001 100.565 224.7 98.059 221.06 95.9977C220.728 91.1183 220.399 86.7519 220.184 82.3798C220.163 81.9372 220.831 81.4607 221.711 81.2871C223.156 81.3759 224.07 81.1774 225.342 80.9666C227.272 82.432 228.844 83.9098 231.405 86.3164C231.956 80.0429 228.555 77.9053 225.285 75.6883C224.582 73.8971 223.561 72.1569 223.262 70.3005C222.947 68.3493 223.503 66.5236 226.652 68.2457C227.291 68.4514 227.503 68.4172 227.715 68.3829C227.553 68.1825 227.391 67.982 227.229 67.7815C226.236 65.3533 225.054 62.9808 224.314 60.4777C223.802 58.7431 223.899 56.8285 223.597 53.6662C223.101 53.4256 221.163 52.865 219.749 51.6795C218.607 50.722 217.806 49.0838 217.435 47.6019C217.265 46.9238 218.31 45.6309 219.12 45.0805C220.912 43.8618 222.904 42.9365 224.815 41.8915C223.337 40.1601 221.859 38.4286 220.096 36.3628C222.11 33.2362 224.555 35.2716 226.85 36.5616C229.177 37.8698 231.409 39.3454 234.296 41.1256C236.338 32.888 230.023 30.117 227.611 25.0587C230.066 25.0587 232.954 25.0587 236.48 25.0587C237.036 24.3108 238.173 22.7817 239.887 21.2564C240.711 21.5801 240.957 21.9001 241.168 22.5835C241.505 24.5418 241.876 26.1367 242.304 27.9714C243.978 26.8642 245.033 26.1667 246.049 25.9251C246.011 28.4149 246.011 30.4487 246.011 32.6646C252.674 30.8007 253.21 29.2131 249.264 25.0428C248.725 24.4725 248.412 23.6877 248.034 22.6871C248.166 21.9591 248.258 21.5462 248.636 21.0605C249.264 20.5298 249.606 20.072 249.948 19.6143C256.188 19.9234 259.455 24.4348 262.328 28.9745C265.435 33.8842 267.759 39.2838 270.699 44.3089C271.49 45.6614 273.281 46.4293 274.613 47.4656C275.14 45.8245 276.413 43.976 276.028 42.5886C275.378 40.2499 274.109 37.707 272.319 36.1455C269.292 33.5047 267.009 30.8355 267.474 26.1214C269.969 30.601 272.864 32.9683 278.358 31.3205C281.618 30.3428 287.926 37.845 288.057 41.3827C288.235 46.2285 288.711 51.0634 289.142 57.0625C291.678 55.5337 293.205 54.6131 294.978 53.544C295.49 54.8157 296.009 56.1049 296.771 57.9991C298.32 56.0013 299.346 53.9788 300.978 52.7859C302.403 51.7444 304.514 51.288 306.316 51.3043C306.957 51.3102 307.805 53.4004 308.162 54.6523C308.887 57.1929 309.045 59.9329 310.035 62.3447C310.527 63.5418 312.342 64.9589 313.563 64.9629C319.406 64.9818 323.119 68.1259 326.257 72.5279C327.987 74.9547 329.919 76.3694 332.745 73.5882C333.658 72.6899 335.338 72.1689 336.662 72.1798C338.961 72.1986 341.277 72.6662 343.55 73.122C349.526 74.3199 355.631 79.7225 361.488 71.1329C361.982 75.3392 362.329 78.2951 362.676 81.2509C363.194 81.3388 363.711 81.4268 364.229 81.5147C364.789 80.2389 365.35 78.9632 365.957 77.3444C366.003 77.0014 365.971 77.0392 365.971 77.0392C368.023 79.1757 370.119 82.0943 373.408 80.0106C375.418 78.7373 376.617 76.1847 378.829 73.3862C385.092 74.9188 390.158 69.8216 395.803 66.3331C396.855 65.6831 397.235 63.946 397.966 62.3552C398.006 61.9998 397.98 62.0351 397.98 62.0351C398.441 56.5883 402.731 56.0445 406.734 53.9946C417.311 48.5778 425.866 55.3995 435.228 57.2296C437.006 57.5772 438.684 58.4389 440.926 59.2509C440.371 62.7181 439.748 66.6123 438.997 71.3066C436.845 72.232 433.869 73.5116 430.816 74.8246C432.926 77.5013 434.811 79.8935 435.872 81.2393C425.377 90.4622 415.857 99.134 406.001 107.408C395.292 116.398 383.71 122.957 368.687 120.488C366.603 120.145 363.218 123.762 361.477 126.27C359.126 129.655 362.788 130.571 364.936 131.939C369.832 135.059 375.176 137.71 379.39 141.583C382.168 144.137 383.062 148.64 385.249 151.976C386.63 154.083 388.839 155.646 391.283 158.049C391.407 157.649 391.134 158.526 390.913 159.236C395.106 160.644 399.277 162.045 403.437 163.442C401.372 165.824 399.374 168.13 397.375 170.436C397.622 170.885 397.868 171.334 398.115 171.782C400.825 171.922 403.534 172.062 406.871 172.235C405.793 173.676 404.987 174.755 403.912 176.191C405.116 178.01 405.985 180.663 407.801 181.789C411.722 184.22 416.129 185.867 419.363 187.379C419.728 192.504 419.852 196.055 420.399 199.539C420.465 199.96 422.853 200.309 424.109 200.174C425.585 200.016 427.001 199.293 428.93 199.206C422.698 203.811 429.546 208.865 427.866 213.463C427.564 214.289 428.04 215.4 428.071 217.182C428.974 220.71 429.821 223.497 430.992 226.14C432.258 229 434.402 231.594 435.081 234.552C435.628 236.936 437.04 240.921 431.922 241.182C431.667 241.195 431.448 242.148 431.232 242.672C429.969 245.73 428.16 248.693 427.604 251.875C427.016 255.241 427.331 258.857 427.82 262.282C428.099 264.233 430.191 265.989 430.278 267.888C430.45 271.638 429.797 275.425 429.454 279.568C430.536 280.194 431.915 280.992 433.534 281.929C431.043 288.634 428.626 295.135 426.21 301.637C418.742 303.821 414.351 310.33 408.234 314.411C407.309 315.028 405.994 316.193 405.353 315.925C399.775 313.59 397.674 317.814 394.575 321.542C392.598 322.693 391.091 323.418 389.564 324.099C385.357 325.977 381.142 327.837 376.931 329.704C375.465 330.468 374.063 331.412 372.522 331.966C364.993 334.672 357.426 337.271 349.875 339.914C348.003 340.57 346.154 341.296 344.268 341.908C339.154 343.565 334.215 343.9 329.541 340.425C327.576 338.964 325.265 337.969 324.172 337.357C323.909 333.436 323.681 330.035 323.431 326.317C321.61 326.523 320.562 326.642 319.267 326.788C319.391 325.642 319.49 324.728 319.587 323.828C316.402 323.828 313.29 323.895 310.182 323.813C305.275 323.683 305.993 327.443 305.774 330.686C303.822 330.859 302.094 331.012 300.366 331.165C297.867 321.868 291.335 319.538 282.438 320.131C282.378 317.104 282.598 314.706 282.69 313.707C288.94 313.215 294.332 312.79 299.794 312.359C299.794 310.231 299.598 309.204 299.839 308.291C300.224 306.828 300.722 305.313 301.585 304.118C301.779 303.849 304.423 304.579 304.633 305.255C305.061 306.633 304.712 308.304 304.475 309.823C304.233 311.367 302.941 313.575 303.53 314.245C304.685 315.56 306.798 316.619 308.563 316.699C313.022 316.9 316.355 314.737 319.602 311.476C322.138 308.928 324.295 307.523 320.008 304.503C322.055 303.039 323.605 301.93 325.155 300.822C325.104 301.407 325.053 301.993 325.003 302.578C332.652 305.1 340.302 307.621 348.182 310.219C347.01 310.828 346.012 311.143 345.293 311.775C344.499 312.475 343.962 313.466 343.381 314.24C337.933 310.414 337.547 310.527 335.761 316.373C335.037 318.745 333.895 321.213 334.057 323.561C334.185 325.427 335.647 327.591 337.149 328.896C340.868 332.129 343.883 330.592 346.5 326.941C349.379 322.924 352.206 318.635 357.424 318.677C358.872 320.072 359.891 321.054 361.113 322.235C363.538 319.033 365.76 315.632 368.349 312.089C370.814 306.716 369.213 301.937 366.904 296.946C366.93 296.052 366.974 295.455 367.371 294.972C372.212 297.325 375.129 293.494 379.061 292.085C383.235 290.601 387.062 289.273 391.552 287.714C390.256 282.101 385.118 277.74 380.069 273.318C381.274 271.919 382.285 270.745 383.134 269.759C381.613 267.594 380.326 265.761 378.699 263.444C380.566 263.237 381.799 263.1 383.036 263.131C383.146 263.26 383.252 263.222 383.358 263.184C383.229 263.13 383.099 263.076 382.997 262.762C383.027 262.326 383.031 262.152 383.017 261.992C382.998 262.006 382.966 262.041 383.333 261.973C386.781 263.779 389.932 265.547 392.926 267.548C399.886 272.2 409.855 271.049 416.833 263.681C403.895 259.716 391.581 255.942 378.677 251.987C380.742 250.749 382.334 249.795 384.533 248.476C382.997 247.092 381.833 246.041 380.714 244.659C380.766 243.884 380.772 243.44 380.839 242.992C380.901 242.989 380.979 242.894 381.24 243.023C381.877 243.233 382.255 243.313 382.812 243.554C383.124 243.356 383.257 242.995 383.354 242.306C384.064 241.576 384.835 240.786 385.548 240.836C389.542 241.116 393.521 241.598 397.505 242.01C397.858 241.337 398.21 240.664 398.563 239.991C396.262 238.032 394.254 235.206 391.595 234.311C387.284 232.858 382.546 232.67 377.947 231.59C377.848 230.998 377.789 230.765 377.752 230.182C379.062 227.146 380.882 225.833 384.079 226.738C395.252 229.9 406.461 232.935 417.662 235.998C418.622 236.261 419.621 236.379 420.047 236.459C419.915 233.985 419.8 231.843 419.61 228.277C414.691 226.815 408.717 224.491 402.525 223.353C396.36 222.22 389.976 222.277 383.688 221.812C383.627 221.299 383.565 220.785 383.504 220.272C388.799 218.884 394.094 217.495 399.38 216.11C396.47 212.437 394.147 211.93 380.345 211.631C378.879 210.957 377.566 210.631 375.947 210.228C371.797 203.318 380.119 203.527 382.688 199.978C380.661 199.658 378.893 199.379 377.125 199.101C377.077 198.798 377.028 198.494 376.979 198.191C379.317 197.126 381.654 196.061 384.315 194.997C384.853 194.3 385.068 193.603 385.283 192.906C384.51 192.989 383.737 193.071 382.624 193.29C380.161 194.098 378.038 194.77 375.787 195.104C375.243 194.557 374.828 194.348 374.539 193.785C374.869 192.975 375.074 192.518 375.599 191.986C379.05 189.931 378.658 187.036 378.232 183.854C383.383 180.373 388.259 177.1 393.135 173.826C392.857 173.247 392.579 172.668 392.301 172.089C385.177 174.738 378.053 177.387 370.527 180.026C366.28 178.103 362.369 176.308 358.621 174.221C357.12 173.384 354.763 171.763 354.881 170.741C355.418 166.117 354.727 164.297 349.204 164.16C343.227 164.011 341.856 163.95 340.584 170.254C339.666 169.086 338.925 168.145 337.497 166.33C336.722 167.578 336.073 168.622 335.338 169.805C334.816 168.846 334.358 168.005 334.022 166.835C340.117 161.958 343.317 156.161 342.319 148.441C335.382 150.913 330.089 160.828 331.739 168.439C330.486 169.869 329.286 170.964 327.752 171.936C321.059 168.605 314.667 165.425 314.697 156.907C317.956 157.218 318.471 155.505 317.537 153.559C315.892 150.133 313.829 146.908 311.518 142.858C309.665 145.384 308.36 147.163 307.744 148.002C309.545 151.549 310.936 154.287 312.242 157.444C313.924 164.661 311.966 171.429 311.955 178.213C311.951 180.108 311.354 182.003 310.878 183.602C309.949 182.28 309.172 181.254 308.395 180.228C308.344 180.78 308.293 181.333 308.243 181.885C304.572 182.271 300.901 182.657 296.979 183.069C298.035 187.447 299.087 191.807 300.087 196.472C298.538 197.643 292.992 209.022 293.165 211.286C293.089 212.15 293.062 212.495 292.668 212.769C290.975 212.696 289.648 212.696 287.712 212.696C289.437 215.558 290.622 217.522 291.496 219.691C290.997 220.058 290.809 220.22 290.263 220.271C288.546 220.108 286.838 219.506 285.896 220.106C283.162 221.849 280.735 224.074 277.827 226.099C276.765 226.328 276.064 226.567 275.362 226.806C276.252 227.874 277.142 228.941 277.974 230.467C278.029 232.833 278.14 234.74 278.285 237.194C276.198 236.902 274.344 236.643 273.584 236.536C271.933 233.383 270.745 231.113 269.557 228.844C268.942 228.98 268.326 229.115 267.71 229.251C267.71 231.293 266.903 233.915 267.87 235.261C270.192 238.492 269.607 241.233 268.223 244.429C267.044 247.151 266.313 250.067 265.119 253.013C264.565 254.002 264.276 254.877 263.904 256.123C262.248 261.02 260.677 265.547 259.348 269.374C260.777 271.011 261.733 272.104 262.688 273.197C261.047 273.757 259.405 274.316 256.489 275.31C255.784 279.225 254.901 284.124 253.651 289.085C251.847 292.451 250.206 295.685 249.013 299.075C245.58 308.833 242.327 318.655 238.961 328.715C238.341 329.32 237.762 329.662 237.184 330.005M279.367 84.207C278.946 84.443 278.526 84.6789 277.744 84.3297C274.215 80.5263 270.686 76.7229 266.692 72.4181C267.304 78.4337 271.646 84.4622 273.868 83.1026C276.876 91.7951 265.729 95.4297 267.057 103.234C265.446 103.573 263.819 103.416 263.137 104.144C259.898 107.603 258.013 105.947 255.654 103.001C254.618 101.708 252.234 101.495 250.463 100.791C250.141 101.458 249.819 102.125 249.497 102.791C258.409 108.962 267.321 115.133 277.329 122.062C268.882 125.945 270.603 132.07 270.759 138.252C270.933 145.147 267.069 150.784 262.576 155.737C264.307 158.256 267.297 160.855 267.833 163.887C268.349 166.81 266.331 170.18 265.401 173.445C265.869 173.236 267.384 173.047 267.666 172.356C269.312 168.317 272.747 167.305 276.456 166.064C281.911 164.24 282.027 163.261 279.016 157.391C280.266 156.214 281.634 155.021 282.892 153.721C284.937 151.609 288.145 149.693 288.677 147.223C290.137 140.451 295.469 139.406 299.895 137.283C301.28 139.28 302.345 140.816 303.088 141.887C305.562 139.415 307.453 137.526 309.924 135.057C309.304 129.728 304.901 122.776 311.748 117.416C313.958 119.729 315.747 121.601 316.599 122.493C321.464 121.208 325.796 120.064 329.914 118.976C326.672 112.889 316.722 115.906 313.928 108.051C299.457 107.798 303.466 96.9334 302.755 88.2426C301.958 90.1361 301.161 92.0296 300.543 93.4988C293.556 95.0779 288.834 91.6492 284.652 87.05C283.547 85.8343 282.65 84.427 281.515 83.2434C281.358 83.0798 280.381 83.7024 279.367 84.207M268.217 225.917C270.438 224.057 273.353 222.611 274.756 220.262C280.077 211.351 283.073 201.805 282.111 191.113C281.501 184.328 273.656 176.15 266.629 175.973C263.473 175.893 261.26 176.881 259.991 179.954C257.112 186.928 254.258 193.922 251.046 200.744C249.861 203.26 247.841 205.447 245.939 207.545C243.956 209.733 241.657 211.634 239.273 213.869C240.704 214.998 241.281 215.808 241.705 215.734C250.355 214.237 255.467 219.576 260.832 224.997C262.122 226.301 265.222 225.815 268.217 225.917M350.966 125.275C352.772 126.146 354.578 127.017 356.384 127.888C356.623 127.563 356.861 127.237 357.1 126.912C355.451 124.244 353.803 121.576 352.155 118.908C351.585 119.046 351.014 119.183 350.444 119.321C350.444 121.122 350.444 122.924 350.966 125.275Z" fill="#2e328b" fill-rule="nonzero" opacity="1" stroke="none"/>
<path d="M229.897 285.13C230.168 286.799 230.439 288.468 230.783 290.494C198.985 293.078 155.543 321.502 145.395 352.883C143.428 343.636 136.504 339.857 129.551 336.508C113.05 328.562 96.4055 320.679 77.8975 318.777C70.3821 318.005 62.7031 318.826 55.0985 318.919C54.1785 318.93 53.2583 318.921 51.7578 318.921C57.6338 313.415 63.0267 308.32 68.4682 303.277C72.2584 299.765 73.6437 295.567 73.5665 290.341C73.2443 268.527 73.0587 246.706 73.2593 224.892C73.3148 218.859 70.8181 215.491 65.6003 213.557C61.8886 212.182 58.1146 210.974 53.1425 209.272C58.648 208.39 62.8809 207.715 67.1127 207.033C90.8928 203.198 111.645 192.707 130.432 178.02C136.319 173.418 140.379 167.344 143.114 160.389C143.706 158.885 144.399 157.42 145.732 154.364C148.532 167.524 156.303 173.392 168.351 175.149C168.351 172.345 168.403 169.764 168.342 167.187C167.895 148.211 167.853 129.214 166.84 110.268C165.875 92.2308 161.081 75.2821 147.077 62.6437C142.606 58.6091 136.865 55.9829 131.334 52.2517C130.33 51.7653 129.697 51.7396 129.063 51.7138C128.605 51.6524 128.147 51.591 127.305 51.1234C126.295 50.7554 125.667 50.7935 125.039 50.8317C121.981 50.8405 118.922 50.8493 115.323 50.5865C114.526 49.8961 114.271 49.4772 114.015 49.0584C121.907 46.4201 130.047 47.7879 137.56 49.5159C157.626 54.1312 175.387 63.7607 188.817 79.6059C194.176 85.9292 197.29 94.156 201.319 102.185C201.587 103.583 201.961 104.313 202.335 105.042C202.878 106.778 203.42 108.513 203.73 110.775C203.795 111.881 204.094 112.46 204.393 113.04C204.942 116.422 205.492 119.804 205.703 123.878C205.279 125.851 204.764 127.302 205.192 128.378C206.142 130.766 207.3 130.477 208.034 128.101C208.347 127.433 208.661 126.765 209.571 126.015C211.456 126.625 212.743 127.317 214.031 128.008C214.649 129.147 215.267 130.286 216.176 131.96C213.796 133.293 211.441 134.611 208.582 136.212C209.45 137.914 210.101 139.778 211.225 141.291C215.528 147.081 217.648 152.924 214.327 160.175C213.188 162.664 214.146 166.114 214.146 169.125C214.606 169.246 215.066 169.366 215.526 169.487C213.324 170.705 211.121 171.923 208.278 173.495C213.028 175.979 220.476 169.178 222.064 179.057C219.168 179.425 216.355 179.782 213.121 180.193C215.777 184.016 223.196 185.698 218.705 193.25C217.798 191.624 217.235 190.614 216.785 189.808C214.264 190.801 211.933 191.719 208.519 193.063C210.079 196.743 211.814 200.837 213.549 204.93C214.069 204.821 214.589 204.711 215.109 204.601C214.427 205.572 213.746 206.544 212.72 208.007C214.852 208.927 216.7 210.023 218.698 210.523C223.21 211.654 222.469 214.814 221.851 217.962C221.539 219.549 221.041 221.1 221.424 222.851C218.994 225.091 218.601 226.681 220.463 230.482C222.508 234.654 221.797 240.176 222.378 245.932C222.419 249.887 222.371 253.021 222.003 256.101C221.245 256.393 220.806 256.738 220.368 257.083C221.034 257.544 221.701 258.006 222.378 258.863C222.404 265.023 222.419 270.787 222.432 276.551C222.445 282.516 223.7 283.961 229.897 285.13M154.202 213.374C142.897 208.952 133.801 201.382 124.924 191.972C124.924 194.348 124.924 195.649 124.924 196.949C124.924 224.257 125.003 251.565 124.831 278.872C124.807 282.596 126.133 284.555 129.249 286.26C141.507 292.965 153.643 299.893 165.846 306.7C166.333 306.971 167.034 306.86 168.3 307.001C168.3 276.917 168.3 247.175 168.3 217.701C163.8 216.362 159.349 215.037 154.202 213.374M213.06 228.384C210.545 226.667 208.029 224.95 204.601 222.61C204.361 222.729 202.82 223.49 200.391 224.69C205.406 227.646 209.648 230.147 215.012 233.31C214.359 231.179 213.996 229.996 213.06 228.384Z" fill="#ffffff" fill-rule="nonzero" opacity="1" stroke="none"/>
<path d="M426.286 302.04C428.626 295.135 431.043 288.634 433.534 281.929C431.915 280.992 430.536 280.194 429.454 279.568C429.797 275.425 430.45 271.638 430.278 267.888C430.191 265.989 428.099 264.233 427.82 262.282C427.331 258.857 427.016 255.241 427.604 251.875C428.16 248.693 429.969 245.73 431.232 242.672C431.448 242.148 431.667 241.195 431.922 241.182C437.04 240.921 435.628 236.936 435.081 234.552C434.402 231.594 432.258 229 430.992 226.14C429.821 223.497 428.974 220.71 428.023 217.591C445.088 208.978 460.635 198.617 474.307 185.487C482.829 177.303 491.629 169.404 500.034 161.104C504.24 156.952 507.842 152.188 511.7 147.722C511.681 147.702 512.068 147.947 512.035 148.107C510.137 157.334 513.82 164.407 520.732 170.07C527.025 175.224 533.338 180.382 539.949 185.107C545.796 189.286 552.019 193.066 560.382 189.447C559.898 190.917 559.866 191.785 559.418 192.262C541.186 211.666 522.971 231.087 504.587 250.345C502.101 252.949 498.873 254.942 495.751 256.822C488.482 261.199 484.192 259.968 479.449 252.188C481.94 249.487 484.512 246.699 487.018 243.983C487.613 244.242 487.959 244.299 488.169 244.499C496.347 252.267 497.986 252.328 505.617 244.332C511.22 238.461 516.595 232.374 522.403 226.021C501.058 220.902 490.357 202.973 475.487 187.839C475.015 191.492 474.532 193.506 474.528 195.522C474.477 220.681 474.491 245.841 474.5 271C474.503 277.949 476.14 279.882 483.488 280.903C491.735 282.048 500.177 282.245 508.246 284.105C520.784 286.997 533.056 291.027 545.506 294.332C546.901 294.702 548.894 293.806 550.3 292.974C555.225 290.061 560.015 286.919 564.856 283.864C565.279 284.26 565.702 284.656 566.126 285.052C565.436 286.12 564.998 287.621 564.018 288.191C545.977 298.701 532.036 313.42 520.249 330.404C518.475 332.96 516.418 335.318 515.238 336.818C475.096 315.768 435.566 313.351 394.2 335.379C396.204 332.961 397.302 331.264 398.749 329.953C406.27 323.14 413.985 316.537 421.392 309.605C423.467 307.665 424.728 304.855 426.286 302.04Z" fill="#fbfbfc" fill-rule="nonzero" opacity="1" stroke="none"/>
<path d="M291.806 219.486C290.622 217.522 289.437 215.558 287.712 212.696C289.648 212.696 290.975 212.696 292.886 212.981C295.724 214.212 297.978 215.159 300.233 216.105C300.493 215.475 300.754 214.844 301.015 214.214C298.415 213.065 295.814 211.917 293.214 210.768C292.992 209.022 298.538 197.643 300.395 196.326C304.286 192.842 307.815 189.809 311.702 186.614C317.402 181.654 322.744 176.857 328.085 172.06C329.286 170.964 330.486 169.869 331.887 168.147C332.692 167.403 333.296 167.284 333.9 167.165C334.358 168.005 334.816 168.846 335.338 169.805C336.073 168.622 336.722 167.578 337.497 166.33C338.925 168.145 339.666 169.086 340.584 170.254C341.856 163.95 343.227 164.011 349.204 164.16C354.727 164.297 355.418 166.117 354.881 170.741C354.763 171.763 357.12 173.384 358.621 174.221C362.369 176.308 366.28 178.103 370.586 180.254C371.048 180.492 371.113 180.957 370.775 181.074C367.309 182.876 364.181 184.561 361.889 185.796C363.307 187.292 364.259 188.298 365.254 189.65C366.284 193.523 367.983 194.213 370.906 191.665C372.259 190.485 374.224 187.749 375.279 192.061C375.074 192.518 374.869 192.975 374.47 193.832C374.276 194.232 374.218 194.388 374.023 194.567C373.72 195.305 373.614 195.863 373.507 196.42C374.196 196.176 374.885 195.932 375.684 195.661C375.795 195.634 375.916 195.442 375.916 195.442C378.038 194.77 380.161 194.098 382.816 193.488C383.563 194.032 383.778 194.514 383.992 194.996C381.654 196.061 379.317 197.126 376.979 198.191C377.028 198.494 377.077 198.798 377.125 199.101C378.893 199.379 380.661 199.658 382.688 199.978C380.119 203.527 371.797 203.318 375.947 210.228C377.566 210.631 378.879 210.957 380.093 211.904C377.069 214.783 374.142 217.041 371.384 219.168C371.07 220.353 371.089 221.993 370.294 222.971C367.571 226.321 364.783 229.678 361.62 232.598C352.719 240.813 344.027 249.341 334.458 256.713C327.784 261.855 322.926 259.922 318.365 252.128C320.856 249.451 323.43 246.684 326.172 243.737C327.631 245.096 328.78 246.251 330.017 247.303C334.639 251.235 337.39 251.428 341.695 247.096C348.342 240.407 354.619 233.352 360.281 227.279C353.313 222.974 345.836 219.51 339.82 214.344C332.422 207.99 326.263 200.199 319.523 193.072C318.168 191.638 316.611 190.394 314.175 188.179C313.777 191.245 313.395 192.821 313.393 194.398C313.357 220.371 313.434 246.344 313.305 272.316C313.283 276.752 315.071 279.239 319.236 280.182C321.177 280.622 323.148 280.939 325.114 281.264C337.068 283.237 349.025 285.196 360.963 287.492C361.28 288.442 361.615 289.062 361.949 289.681C362.631 289.127 363.312 288.572 364.384 287.998C369.421 289.399 374.067 290.819 378.713 292.24C375.129 293.494 372.212 297.325 367.328 294.626C365.771 293.154 364.61 292.144 363.449 291.135C362.081 292.891 360.185 294.47 359.52 296.461C359.032 297.922 360.157 299.923 360.563 301.683C361.909 301.029 363.339 300.502 364.572 299.678C365.488 299.065 366.147 298.068 366.921 297.242C369.213 301.937 370.814 306.716 368.005 312.077C365.166 315.484 363.038 318.76 360.91 322.036C359.891 321.054 358.872 320.072 357.424 318.677C352.206 318.635 349.379 322.924 346.5 326.941C343.883 330.592 340.868 332.129 337.149 328.896C335.647 327.591 334.185 325.427 334.057 323.561C333.895 321.213 335.037 318.745 335.761 316.373C337.547 310.527 337.933 310.414 343.381 314.24C343.962 313.466 344.499 312.475 345.293 311.775C346.012 311.143 347.01 310.828 348.182 310.219C340.302 307.621 332.652 305.1 325.003 302.578C325.053 301.993 325.104 301.407 325.155 300.822C323.605 301.93 322.055 303.039 320.008 304.503C324.295 307.523 322.138 308.928 319.602 311.476C316.355 314.737 313.022 316.9 308.563 316.699C306.798 316.619 304.685 315.56 303.53 314.245C302.941 313.575 304.233 311.367 304.475 309.823C304.712 308.304 305.061 306.633 304.633 305.255C304.423 304.579 301.779 303.849 301.585 304.118C300.722 305.313 300.224 306.828 299.839 308.291C299.598 309.204 299.794 310.231 299.794 312.359C294.332 312.79 288.94 313.215 282.69 313.707C282.598 314.706 282.378 317.104 282.141 319.863C265.004 321.013 249.155 325.914 233.998 334.577C234.956 333.265 235.914 331.954 237.028 330.324C237.762 329.662 238.341 329.32 239.266 328.524C248.002 320.659 256.392 313.249 265.068 306.021C265.578 306.175 265.801 306.146 266.353 306.183C267.505 305.974 268.328 305.7 269.511 305.262C269.624 304.284 269.378 303.469 268.991 302.371C268.161 301.633 267.472 301.177 266.664 300.527C266.261 299.975 265.979 299.619 265.783 298.8C266.789 293.898 267.707 289.459 268.704 284.644C268.233 284.506 266.865 284.105 265.508 283.312C265.483 274.001 265.449 265.082 265.6 255.778C265.652 254.561 265.518 253.729 265.385 252.898C266.313 250.067 267.044 247.151 268.223 244.429C269.607 241.233 270.192 238.492 267.87 235.261C266.903 233.915 267.71 231.293 267.71 229.251C268.326 229.115 268.942 228.98 269.557 228.844C270.745 231.113 271.933 233.383 273.584 236.536C274.344 236.643 276.198 236.902 278.285 237.194C278.14 234.74 278.029 232.833 278.384 230.439C279.837 230.301 281.633 230.568 281.678 231.015C282.046 234.593 284.781 234.286 286.907 234.027C289.417 233.721 291.831 232.62 294.286 231.864C291.904 230.6 289.54 230.599 287.395 229.912C284.243 228.902 281.249 227.401 278.188 226.11C280.735 224.074 283.162 221.849 285.896 220.106C286.838 219.506 288.546 220.108 290.477 220.515C291.302 220.409 291.554 219.947 291.806 219.486M281.052 286.788C280.947 287.097 280.843 287.405 280.76 287.793C280.76 287.793 280.68 287.777 280.033 287.944C277.283 292.419 274.532 296.895 271.781 301.37C272.159 301.631 272.538 301.891 272.916 302.152C274.926 301.656 276.936 301.16 278.592 300.752C280.444 297.033 275.555 291.086 283.232 290.309C283.232 290.309 283.507 290.378 283.772 291.085C283.953 292.488 284.133 293.89 284.374 295.765C285.536 294.91 286.514 294.189 287.788 293.414C287.788 293.414 288.031 293.238 288.702 293.329C289.287 293.032 289.871 292.735 290.763 292.398C290.763 292.398 291.023 292.229 291.668 292.33C292.183 292 292.698 291.671 293.174 291.2C293.174 291.2 293.274 291.307 293.891 291.393C294.324 291.004 294.757 290.615 295.026 289.999C295.026 289.999 295.203 290.217 295.754 290.221C295.923 289.923 296.092 289.625 296.289 289.27C296.289 289.27 296.348 289.245 297.031 289.123C298.885 285.512 295.452 285.202 293.892 285.276C291.411 285.395 289.391 285.848 288.157 283C288.038 282.728 285.89 283.335 284.584 283.612C284.584 283.612 284.497 283.705 284.091 283.678C283.795 283.806 283.675 284.029 283.447 284.463C283.447 284.463 283.315 284.741 282.993 284.78C282.777 284.903 282.687 285.088 282.46 285.466C282.46 285.466 282.357 285.743 281.925 285.803C281.636 286.001 281.562 286.26 281.641 286.656C281.641 286.656 281.572 286.725 281.052 286.788M294.088 307.93C294.805 306.743 295.522 305.556 296.239 304.369C295.258 303.885 294.197 302.91 293.32 303.055C292.431 303.202 290.994 304.589 291.104 305.194C291.289 306.209 292.511 307.035 294.088 307.93Z" fill="#f8f8fa" fill-rule="nonzero" opacity="1" stroke="none"/>
<path d="M425.669 353.233C433.878 359.6 437.075 367.795 434.444 377.317C431.552 387.781 422.991 392.814 413.069 394.55C403.147 396.285 393.129 395.79 384.211 389.805C369.409 379.87 370.676 358.9 386.829 351.183C399.859 344.958 412.872 345.267 425.669 353.233M386.767 357.153C375.184 367.346 376.959 381.011 390.806 387.523C399.204 391.472 407.998 391.292 416.546 388.469C425.088 385.649 430.107 378.525 429.847 371.121C429.575 363.376 424.101 356.46 415.649 353.737C405.842 350.577 396.35 351.392 386.767 357.153Z" fill="#2e2f86" fill-rule="nonzero" opacity="1" stroke="none"/>
<path d="M326.978 348.838C334.678 348.721 341.873 348.814 348.2 352.947C357.223 358.84 358.387 367.829 356.784 377.289C355.265 386.246 348.653 391.493 340.318 392.58C328.862 394.075 317.182 393.858 305.193 394.393C305.193 378.82 305.193 364.255 305.193 348.838C312.304 348.838 319.393 348.838 326.978 348.838M330.318 388.971C332.783 388.695 335.279 388.581 337.707 388.115C347.372 386.258 352.201 380.323 351.965 370.775C351.742 361.746 345.8 354.844 336.655 354.141C328.723 353.532 320.716 353.797 312.745 353.921C311.757 353.937 309.958 355.449 309.943 356.293C309.751 367.017 309.817 377.745 309.817 388.975C316.803 388.975 323.082 388.975 330.318 388.971Z" fill="#2e3086" fill-rule="nonzero" opacity="1" stroke="none"/>
<path d="M177.894 347.895C182.394 350.053 186.603 351.956 190.467 354.404C191.358 354.969 191.064 357.403 191.316 358.976C189.818 358.712 187.858 358.963 186.896 358.1C179.702 351.652 171.484 350.676 162.645 353.333C159.158 354.381 155.621 356.866 156.523 360.681C157.072 363 160.502 365.604 163.105 366.282C169.997 368.077 177.175 368.737 184.181 370.136C192.936 371.883 196.115 375.191 196.203 381.694C196.267 386.407 193.937 389.577 190.142 391.882C178.699 398.828 158.152 395.263 149.637 385.013C147.047 381.895 147.515 380.107 151.602 379.063C158.448 388.723 168.294 390.953 179.335 390.09C180.491 390 181.683 389.903 182.774 389.548C186.598 388.305 190.969 387.173 191.046 382.192C191.127 376.928 186.405 376.102 182.658 375.248C175.374 373.587 167.922 372.671 160.625 371.058C154.012 369.596 151.282 366.737 150.905 361.931C150.462 356.269 153.373 350.794 159.38 349.321C165.185 347.898 171.428 348.26 177.894 347.895Z" fill="#2e2f85" fill-rule="nonzero" opacity="1" stroke="none"/>
<path d="M464.751 352.036C460.733 352.6 456.782 352.438 453.694 353.991C451.316 355.187 448.78 358.485 448.676 360.948C448.606 362.624 452.368 365.391 454.852 366.063C461.401 367.834 468.206 368.636 474.869 370.021C477.286 370.524 479.71 371.34 481.92 372.436C489.844 376.368 490.681 385.337 483.542 390.574C475.636 396.374 466.605 395.941 457.65 394.247C451.313 393.048 445.779 389.956 441.585 384.839C439.383 382.154 439.322 380.082 443.503 379.068C450.038 388.067 459.352 391.035 470.081 390.078C473.138 389.805 476.345 388.857 479.007 387.367C480.754 386.389 482.673 383.859 482.63 382.07C482.588 380.307 480.492 377.639 478.733 377.051C473.416 375.271 467.833 374.276 462.339 373.036C458.294 372.123 454.089 371.705 450.198 370.363C441.95 367.518 440.25 357.891 446.722 352.008C456.296 343.307 477.029 346.269 484.059 357.529C482.426 359.622 481.456 360.754 478.326 358.367C474.542 355.481 469.62 354.088 464.751 352.036Z" fill="#2e2f85" fill-rule="nonzero" opacity="1" stroke="none"/>
<path d="M299.009 373.764C299.328 386.722 288.255 394.41 278.361 395.043C268.725 395.66 259.487 394.768 253.284 386.198C251.454 383.669 250.29 380.16 250.114 377.028C249.657 368.901 249.807 360.731 250.011 352.586C250.043 351.33 251.642 350.114 252.516 348.879C253.3 350.22 254.714 351.538 254.762 352.905C255.001 359.717 254.813 366.542 254.903 373.362C255.019 382.05 259.057 387.936 267.52 389.385C272.72 390.275 278.532 389.814 283.653 388.425C291.616 386.266 293.634 379.359 293.796 371.917C293.937 365.432 293.69 358.936 293.962 352.46C294.013 351.233 295.69 350.074 296.617 348.885C297.418 350.035 298.876 351.165 298.912 352.339C299.128 359.319 299.015 366.309 299.009 373.764Z" fill="#2e2f85" fill-rule="nonzero" opacity="1" stroke="none"/>
<path d="M244.375 353.751C237.825 353.789 231.718 353.789 225.027 353.789C225.027 360.913 225.027 367.362 225.027 373.811C225.027 380.273 225.027 386.734 225.027 393.246C220.74 394.695 219.139 393.533 219.201 389.326C219.354 379.002 219.135 368.672 219.315 358.349C219.375 354.922 218.392 353.536 214.813 353.745C210.331 354.005 205.812 353.973 201.333 353.686C200.178 353.612 199.114 352.109 198.009 351.263C199.151 350.456 200.286 348.959 201.437 348.945C215.426 348.783 229.417 348.807 243.407 348.901C244.514 348.909 245.615 349.794 246.719 350.272C246.085 351.419 245.452 352.566 244.375 353.751Z" fill="#2e2f85" fill-rule="nonzero" opacity="1" stroke="none"/>
<path d="M111.614 51.6175C100.747 55.6533 93.8115 63.2545 92.0916 74.7538C90.029 88.5448 99.8731 99.9438 113.854 100.68C115.2 100.751 116.546 100.821 118.286 100.913C109.055 105.819 97.1538 100.968 91.647 90.4489C84.8213 77.4105 89.2707 61.2221 102.085 52.8427C104.152 51.4912 106.508 50.5816 109.243 49.6027C109.756 49.7377 110.07 50.0729 110.135 50.282C110.391 50.7287 110.637 50.8766 111.104 51.1073C111.271 51.2799 111.614 51.6175 111.614 51.6175Z" fill="#ffffff" fill-rule="nonzero" opacity="1" stroke="none"/>
<path d="M363.013 384.941C363.013 373.96 362.912 363.469 363.134 352.985C363.163 351.603 364.842 350.256 365.757 348.893C366.569 350.201 368.069 351.499 368.088 352.818C368.268 365.136 368.283 377.459 368.073 389.775C368.05 391.153 366.338 392.502 365.41 393.864C364.611 392.552 363.51 391.327 363.1 389.903C362.702 388.519 363.013 386.931 363.013 384.941Z" fill="#2f318a" fill-rule="nonzero" opacity="1" stroke="none"/>
<path d="M119.514 82.6583C124.748 84.2302 126.655 87.7394 126.322 92.5774C126.067 96.2769 123.948 98.458 119.905 99.6796C120.817 97.0281 121.514 94.9995 122.332 92.6216C118.374 91.5375 112.509 94.6369 112.366 88.0216C112.281 84.1137 115.224 82.3305 119.514 82.6583Z" fill="#ffffff" fill-rule="nonzero" opacity="1" stroke="none"/>
<path d="M214.435 127.985C212.743 127.317 211.456 126.625 209.799 125.846C212.503 122.602 215.577 119.445 218.929 116.053C221.211 118.234 223.217 120.65 225.701 123.642C223.504 123.971 222.413 124.135 221.053 124.338C221.55 125.525 222.022 126.652 222.72 128.32C219.886 128.191 217.363 128.076 214.435 127.985Z" fill="#000000" fill-opacity="0" fill-rule="nonzero" opacity="1" stroke="none"/>
<path d="M377.094 330.077C381.142 327.837 385.357 325.977 389.564 324.099C391.091 323.418 392.598 322.693 394.469 321.861C396.251 325.924 395.604 328.312 390.462 329.343C386.023 330.233 382.026 333.854 377.094 330.077Z" fill="#0b0b20" fill-opacity="0" fill-rule="nonzero" opacity="1" stroke="none"/>
<path d="M225.106 75.9572C228.555 77.9053 231.956 80.0429 231.405 86.3164C228.844 83.9098 227.272 82.432 225.35 80.977C225 80.9997 225.018 81.0187 225.048 80.6731C224.625 79.8699 224.174 79.4122 223.722 78.9545C224.124 78.045 224.526 77.1355 225.106 75.9572Z" fill="#0b0b20" fill-opacity="0" fill-rule="nonzero" opacity="1" stroke="none"/>
<path d="M241.203 22.22C240.957 21.9001 240.711 21.5801 240.204 21.102C241.617 19.1944 243.198 17.3307 245.058 15.808C245.369 15.5535 246.892 16.7792 247.684 17.7934C247.297 18.7132 247.08 19.1605 246.509 19.6856C244.504 20.5822 242.853 21.4011 241.203 22.22Z" fill="#222568" fill-rule="nonzero" opacity="1" stroke="none"/>
<path d="M207.64 128.133C207.3 130.477 206.142 130.766 205.192 128.378C204.764 127.302 205.279 125.851 205.627 124.305C206.34 125.414 206.793 126.79 207.64 128.133Z" fill="#e9e9ef" fill-rule="nonzero" opacity="1" stroke="none"/>
<path d="M113.722 48.976C114.271 49.4772 114.526 49.8961 114.865 50.5497C114.005 51.0827 113.061 51.3811 111.866 51.6485C111.614 51.6175 111.271 51.2799 111.04 50.8985C110.618 50.277 110.372 50.1289 110.07 50.0729C110.07 50.0729 109.756 49.7377 109.606 49.5639C110.78 49.2246 112.105 49.0591 113.722 48.976Z" fill="#ffffff" fill-rule="nonzero" opacity="1" stroke="none"/>
<path d="M246.863 19.6078C247.08 19.1605 247.297 18.7132 247.725 18.1287C248.578 18.3449 249.221 18.6982 249.906 19.3329C249.606 20.072 249.264 20.5298 248.309 20.8917C247.418 20.3999 247.141 20.0039 246.863 19.6078Z" fill="#070713" fill-opacity="0" fill-rule="nonzero" opacity="1" stroke="none"/>
<path d="M224.992 80.9893C224.07 81.1774 223.156 81.3759 222.102 81.2991C222.409 81.015 222.856 81.0061 223.899 81.0293C224.67 81.0472 224.844 81.0329 225.018 81.0187C225.018 81.0187 225 80.9997 224.992 80.9893Z" fill="#0b0b20" fill-rule="nonzero" opacity="1" stroke="none"/>
<path d="M125.262 50.9956C125.667 50.7935 126.295 50.7554 127.009 50.9368C126.558 51.1575 126.021 51.1585 125.262 50.9956Z" fill="#d9d9d9" fill-rule="nonzero" opacity="1" stroke="none"/>
<path d="M129.27 51.8993C129.697 51.7396 130.33 51.7653 131.029 52.0196C130.556 52.1937 130.017 52.1393 129.27 51.8993Z" fill="#d9d9d9" fill-rule="nonzero" opacity="1" stroke="none"/>
<path d="M202.386 104.737C201.961 104.313 201.587 103.583 201.342 102.53C201.794 102.949 202.115 103.69 202.386 104.737Z" fill="#e9e9ef" fill-rule="nonzero" opacity="1" stroke="none"/>
<path d="M567.922 283.484C568.343 283.508 568.763 283.532 569.184 283.555C569.013 284.126 568.843 284.697 568.348 284.836C567.99 284.098 567.956 283.791 567.922 283.484Z" fill="#cdcdcd" fill-rule="nonzero" opacity="1" stroke="none"/>
<path d="M204.478 112.777C204.094 112.46 203.795 111.881 203.703 111.166C204.128 111.526 204.346 112.02 204.478 112.777Z" fill="#e9e9ef" fill-rule="nonzero" opacity="1" stroke="none"/>
<path d="M225.048 80.6731C224.844 81.0329 224.67 81.0472 224.234 81.0327C223.948 80.5445 223.923 80.0849 223.81 79.2899C224.174 79.4122 224.625 79.8699 225.048 80.6731Z" fill="#2e328b" fill-rule="nonzero" opacity="1" stroke="none"/>
<path d="M567.75 285.59C567.064 285.725 566.378 285.86 565.692 285.995C565.66 285.398 565.628 284.801 566.355 284.494C567.326 285.053 567.538 285.322 567.75 285.59Z" fill="#fbfbfc" fill-rule="nonzero" opacity="1" stroke="none"/>
<path d="M567.688 283.43C567.956 283.791 567.99 284.098 568.097 284.863C568.171 285.32 568.012 285.536 567.881 285.563C567.538 285.322 567.326 285.053 566.886 284.324C566.839 283.561 567.103 283.399 567.688 283.43Z" fill="#fbfbfc" fill-rule="nonzero" opacity="1" stroke="none"/>
<path d="M398.022 61.9857C397.9 61.8489 397.76 61.7263 397.621 61.6036C397.705 61.6532 397.789 61.7028 397.926 61.8937C397.98 62.0351 398.006 61.9998 398.022 61.9857Z" fill="#2e328b" fill-rule="nonzero" opacity="1" stroke="none"/>
<path d="M366.022 76.9853C365.918 76.9314 365.796 76.8935 365.673 76.8557C365.751 76.8175 365.83 76.7792 365.94 76.8901C365.971 77.0392 366.003 77.0014 366.022 76.9853Z" fill="#2e328b" fill-rule="nonzero" opacity="1" stroke="none"/>
<path d="M379.061 292.085C374.067 290.819 369.421 289.399 364.133 287.79C362.654 287.456 361.817 287.308 360.981 287.16C349.025 285.196 337.068 283.237 325.114 281.264C323.148 280.939 321.177 280.622 319.236 280.182C315.071 279.239 313.283 276.752 313.305 272.316C313.434 246.344 313.357 220.371 313.393 194.398C313.395 192.821 313.777 191.245 314.175 188.179C316.611 190.394 318.168 191.638 319.523 193.072C326.263 200.199 332.422 207.99 339.82 214.344C345.836 219.51 353.313 222.974 360.281 227.279C354.619 233.352 348.342 240.407 341.695 247.096C337.39 251.428 334.639 251.235 330.017 247.303C328.78 246.251 327.631 245.096 326.172 243.737C323.43 246.684 320.856 249.451 318.365 252.128C322.926 259.922 327.784 261.855 334.458 256.713C344.027 249.341 352.719 240.813 361.62 232.598C364.783 229.678 367.571 226.321 370.294 222.971C371.089 221.993 371.07 220.353 371.384 219.168C374.142 217.041 377.069 214.783 380.248 212.252C394.147 211.93 396.47 212.437 399.38 216.11C394.094 217.495 388.799 218.884 383.504 220.272C383.565 220.785 383.627 221.299 383.688 221.812C389.976 222.277 396.36 222.22 402.525 223.353C408.717 224.491 414.691 226.815 419.61 228.277C419.8 231.843 419.915 233.985 420.047 236.459C419.621 236.379 418.622 236.261 417.662 235.998C406.461 232.935 395.252 229.9 384.079 226.738C380.882 225.833 379.062 227.146 377.387 230.269C375.232 230.542 373.464 230.378 371.442 230.191C371.063 231.673 370.714 233.037 370.526 233.771C374.311 235.631 377.666 237.279 381.031 239.227C381.021 240.65 381 241.772 380.979 242.894C380.979 242.894 380.901 242.989 380.666 243.148C380.51 243.869 380.589 244.429 380.668 244.99C381.833 246.041 382.997 247.092 384.533 248.476C382.334 249.795 380.742 250.749 378.677 251.987C391.581 255.942 403.895 259.716 416.833 263.681C409.855 271.049 399.886 272.2 392.926 267.548C389.932 265.547 386.781 263.779 383.326 261.812C382.857 261.746 382.763 261.772 382.669 261.798C382.791 261.858 382.913 261.917 383.035 261.977C383.031 262.152 383.027 262.326 383.013 262.748C383.003 262.995 383.032 262.964 383.032 262.964C381.799 263.1 380.566 263.237 378.699 263.444C380.326 265.761 381.613 267.594 383.134 269.759C382.285 270.745 381.274 271.919 380.069 273.318C385.118 277.74 390.256 282.101 391.552 287.714C387.062 289.273 383.235 290.601 379.061 292.085Z" fill="#060608" fill-opacity="0" fill-rule="nonzero" opacity="1" stroke="none"/>
<path d="M279.784 83.961C280.381 83.7024 281.358 83.0798 281.515 83.2434C282.65 84.427 283.547 85.8343 284.652 87.05C288.834 91.6492 293.556 95.0779 300.543 93.4988C301.161 92.0296 301.958 90.1361 302.755 88.2426C303.466 96.9334 299.457 107.798 313.928 108.051C316.722 115.906 326.672 112.889 329.914 118.976C325.796 120.064 321.464 121.208 316.599 122.493C315.747 121.601 313.958 119.729 311.748 117.416C304.901 122.776 309.304 129.728 309.924 135.057C307.453 137.526 305.562 139.415 303.088 141.887C302.345 140.816 301.28 139.28 299.895 137.283C295.469 139.406 290.137 140.451 288.677 147.223C288.145 149.693 284.937 151.609 282.892 153.721C281.634 155.021 280.266 156.214 279.016 157.391C282.027 163.261 281.911 164.24 276.456 166.064C272.747 167.305 269.312 168.317 267.666 172.356C267.384 173.047 265.869 173.236 265.401 173.445C266.331 170.18 268.349 166.81 267.833 163.887C267.297 160.855 264.307 158.256 262.576 155.737C267.069 150.784 270.933 145.147 270.759 138.252C270.603 132.07 268.882 125.945 277.329 122.062C267.321 115.133 258.409 108.962 249.497 102.791C249.819 102.125 250.141 101.458 250.463 100.791C252.234 101.495 254.618 101.708 255.654 103.001C258.013 105.947 259.898 107.603 263.137 104.144C263.819 103.416 265.446 103.573 267.057 103.234C265.729 95.4297 276.876 91.7951 273.868 83.1026C271.646 84.4622 267.304 78.4337 266.692 72.4181C270.686 76.7229 274.215 80.5263 277.932 84.9964C279.285 88.3331 280.45 91.0032 281.615 93.6732C282.166 93.4082 282.717 93.1431 283.269 92.878C282.107 89.9057 280.946 86.9333 279.784 83.961Z" fill="#020205" fill-opacity="0" fill-rule="nonzero" opacity="1" stroke="none"/>
<path d="M267.853 226.035C265.222 225.815 262.122 226.301 260.832 224.997C255.467 219.576 250.355 214.237 241.705 215.734C241.281 215.808 240.704 214.998 239.273 213.869C241.657 211.634 243.956 209.733 245.939 207.545C247.841 205.447 249.861 203.26 251.046 200.744C254.258 193.922 257.112 186.928 259.991 179.954C261.26 176.881 263.473 175.893 266.629 175.973C273.656 176.15 281.501 184.328 282.111 191.113C283.073 201.805 280.077 211.351 274.756 220.262C273.353 222.611 270.438 224.057 267.853 226.035Z" fill="#000000" fill-opacity="0" fill-rule="nonzero" opacity="1" stroke="none"/>
<path d="M265.696 299.262C265.979 299.619 266.261 299.975 266.289 300.541C265.678 302.163 265.323 303.574 264.847 305.183C264.726 305.38 264.782 305.839 264.782 305.839C256.392 313.249 248.002 320.659 239.307 328.261C242.327 318.655 245.58 308.833 249.013 299.075C250.206 295.685 251.847 292.451 253.639 289.072C253.995 288.998 253.97 288.973 254.072 289.206C254.451 289.63 254.728 289.821 255.101 290.22C255.378 290.688 255.616 290.871 255.953 291.352C256.617 296.941 261.693 296.122 264.773 298.392C265.144 298.851 265.42 299.057 265.696 299.262Z" fill="#060609" fill-opacity="0" fill-rule="nonzero" opacity="1" stroke="none"/>
<path d="M255.914 290.977C255.616 290.871 255.378 290.688 255.004 289.976C254.53 289.341 254.25 289.157 253.97 288.973C253.97 288.973 253.995 288.998 254.006 289.011C254.901 284.124 255.784 279.225 256.489 275.31C259.405 274.316 261.047 273.757 262.688 273.197C261.733 272.104 260.777 271.011 259.348 269.374C260.677 265.547 262.248 261.02 264.147 256.2C264.788 255.991 265.101 256.077 265.414 256.162C265.449 265.082 265.483 274.001 265.27 283.593C263.289 286.449 261.555 288.633 259.439 290.896C258.009 290.975 256.961 290.976 255.914 290.977Z" fill="#04040a" fill-opacity="0" fill-rule="nonzero" opacity="1" stroke="none"/>
<path d="M327.752 171.936C322.744 176.857 317.402 181.654 311.621 185.894C311.13 184.857 311.08 184.377 311.03 183.897C311.354 182.003 311.951 180.108 311.955 178.213C311.966 171.429 313.924 164.661 312.485 157.438C313.29 156.992 313.769 156.971 314.249 156.95C314.667 165.425 321.059 168.605 327.752 171.936Z" fill="#0c0c13" fill-opacity="0" fill-rule="nonzero" opacity="1" stroke="none"/>
<path d="M229.872 284.71C223.7 283.961 222.445 282.516 222.432 276.551C222.419 270.787 222.404 265.023 222.586 258.601C222.629 257.347 222.476 256.751 222.322 256.155C222.371 253.021 222.419 249.887 222.555 246.279C223.521 249.055 224.659 252.26 225.233 255.564C226.893 265.118 228.326 274.711 229.872 284.71Z" fill="#080810" fill-opacity="0" fill-rule="nonzero" opacity="1" stroke="none"/>
<path d="M381.24 243.023C381 241.772 381.021 240.65 381.355 239.247C382.014 238.378 382.791 237.447 382.638 237.253C381.178 235.414 379.56 233.699 377.988 231.949C382.546 232.67 387.284 232.858 391.595 234.311C394.254 235.206 396.262 238.032 398.563 239.991C398.21 240.664 397.858 241.337 397.505 242.01C393.521 241.598 389.542 241.116 385.548 240.836C384.835 240.786 384.064 241.576 383.162 242.493C382.88 243.135 382.756 243.264 382.632 243.393C382.255 243.313 381.877 243.233 381.24 243.023Z" fill="#050610" fill-opacity="0" fill-rule="nonzero" opacity="1" stroke="none"/>
<path d="M310.878 183.602C311.08 184.377 311.13 184.857 311.262 186.057C307.815 189.809 304.286 192.842 300.448 196.022C299.087 191.807 298.035 187.447 296.979 183.069C300.901 182.657 304.572 182.271 308.243 181.885C308.293 181.333 308.344 180.78 308.395 180.228C309.172 181.254 309.949 182.28 310.878 183.602Z" fill="#06060c" fill-opacity="0" fill-rule="nonzero" opacity="1" stroke="none"/>
<path d="M334.022 166.835C333.296 167.284 332.692 167.403 331.94 167.813C330.089 160.828 335.382 150.913 342.319 148.441C343.317 156.161 340.117 161.958 334.022 166.835Z" fill="#06060e" fill-opacity="0" fill-rule="nonzero" opacity="1" stroke="none"/>
<path d="M371.113 180.957C371.113 180.957 371.048 180.492 370.988 180.264C378.053 177.387 385.177 174.738 392.301 172.089C392.579 172.668 392.857 173.247 393.135 173.826C388.259 177.1 383.383 180.373 377.924 183.846C376.929 184.03 376.518 184.014 375.979 183.676C374.272 182.554 372.692 181.756 371.113 180.957Z" fill="#0a0a18" fill-opacity="0" fill-rule="nonzero" opacity="1" stroke="none"/>
<path d="M314.697 156.907C313.769 156.971 313.29 156.992 312.568 157.018C310.936 154.287 309.545 151.549 307.744 148.002C308.36 147.163 309.665 145.384 311.518 142.858C313.829 146.908 315.892 150.133 317.537 153.559C318.471 155.505 317.956 157.218 314.697 156.907Z" fill="#0a0a1c" fill-opacity="0" fill-rule="nonzero" opacity="1" stroke="none"/>
<path d="M277.827 226.099C281.249 227.401 284.243 228.902 287.395 229.912C289.54 230.599 291.904 230.6 294.286 231.864C291.831 232.62 289.417 233.721 286.907 234.027C284.781 234.286 282.046 234.593 281.678 231.015C281.633 230.568 279.837 230.301 278.442 229.98C277.142 228.941 276.252 227.874 275.362 226.806C276.064 226.567 276.765 226.328 277.827 226.099Z" fill="#5759a2" fill-rule="nonzero" opacity="1" stroke="none"/>
<path d="M376.107 183.999C376.518 184.014 376.929 184.03 377.65 184.053C378.658 187.036 379.05 189.931 375.599 191.986C374.224 187.749 372.259 190.485 370.906 191.665C367.983 194.213 366.284 193.523 365.599 189.509C369.303 187.347 372.705 185.673 376.107 183.999Z" fill="#5456a1" fill-rule="nonzero" opacity="1" stroke="none"/>
<path d="M366.904 296.946C366.147 298.068 365.488 299.065 364.572 299.678C363.339 300.502 361.909 301.029 360.563 301.683C360.157 299.923 359.032 297.922 359.52 296.461C360.185 294.47 362.081 292.891 363.449 291.135C364.61 292.144 365.771 293.154 366.975 294.511C366.974 295.455 366.93 296.052 366.904 296.946Z" fill="#e1e1e9" fill-rule="nonzero" opacity="1" stroke="none"/>
<path d="M377.947 231.59C379.56 233.699 381.178 235.414 382.638 237.253C382.791 237.447 382.014 238.378 381.344 238.947C377.666 237.279 374.311 235.631 370.526 233.771C370.714 233.037 371.063 231.673 371.442 230.191C373.464 230.378 375.232 230.542 377.366 230.618C377.789 230.765 377.848 230.998 377.947 231.59Z" fill="#282a78" fill-rule="nonzero" opacity="1" stroke="none"/>
<path d="M247.994 23.0023C248.412 23.6877 248.725 24.4725 249.264 25.0428C253.21 29.2131 252.674 30.8007 246.011 32.6646C246.011 30.4487 246.011 28.4149 246.055 25.6667C246.731 24.3023 247.363 23.6523 247.994 23.0023Z" fill="#070713" fill-opacity="0" fill-rule="nonzero" opacity="1" stroke="none"/>
<path d="M248.034 22.6871C247.363 23.6523 246.731 24.3023 246.094 25.2107C245.033 26.1667 243.978 26.8642 242.304 27.9714C241.876 26.1367 241.505 24.5418 241.168 22.5835C242.853 21.4011 244.504 20.5822 246.509 19.6856C247.141 20.0039 247.418 20.3999 248.022 20.9646C248.258 21.5462 248.166 21.9591 248.034 22.6871Z" fill="#010101" fill-opacity="0" fill-rule="nonzero" opacity="1" stroke="none"/>
<path d="M350.705 125C350.444 122.924 350.444 121.122 350.444 119.321C351.014 119.183 351.585 119.046 352.155 118.908C353.803 121.576 355.451 124.244 357.1 126.912C356.861 127.237 356.623 127.563 356.384 127.888C354.578 127.017 352.772 126.146 350.705 125Z" fill="#0b0b20" fill-opacity="0" fill-rule="nonzero" opacity="1" stroke="none"/>
<path d="M361.113 322.235C363.038 318.76 365.166 315.484 367.638 312.22C365.76 315.632 363.538 319.033 361.113 322.235Z" fill="#000000" fill-rule="nonzero" opacity="1" stroke="none"/>
<path d="M279.575 84.084C280.946 86.9333 282.107 89.9057 283.269 92.878C282.717 93.1431 282.166 93.4082 281.615 93.6732C280.45 91.0032 279.285 88.3331 278.113 85.289C278.526 84.6789 278.946 84.443 279.575 84.084Z" fill="#1f215d" fill-rule="nonzero" opacity="1" stroke="none"/>
<path d="M293.165 211.286C295.814 211.917 298.415 213.065 301.015 214.214C300.754 214.844 300.493 215.475 300.233 216.105C297.978 215.159 295.724 214.212 293.253 213.054C293.062 212.495 293.089 212.15 293.165 211.286Z" fill="#797ab5" fill-rule="nonzero" opacity="1" stroke="none"/>
<path d="M384.315 194.997C383.778 194.514 383.563 194.032 383.156 193.351C383.737 193.071 384.51 192.989 385.283 192.906C385.068 193.603 384.853 194.3 384.315 194.997Z" fill="#5456a1" fill-rule="nonzero" opacity="1" stroke="none"/>
<path d="M265.6 255.778C265.101 256.077 264.788 255.991 264.231 255.828C264.276 254.877 264.565 254.002 265.119 253.013C265.518 253.729 265.652 254.561 265.6 255.778Z" fill="#545586" fill-rule="nonzero" opacity="1" stroke="none"/>
<path d="M380.714 244.659C380.589 244.429 380.51 243.869 380.605 243.152C380.772 243.44 380.766 243.884 380.714 244.659Z" fill="#050610" fill-rule="nonzero" opacity="1" stroke="none"/>
<path d="M383.196 242.82C383.257 242.995 383.124 243.356 382.812 243.554C382.756 243.264 382.88 243.135 383.196 242.82Z" fill="#050610" fill-rule="nonzero" opacity="1" stroke="none"/>
<path d="M374.218 194.388C374.218 194.388 374.276 194.232 374.344 194.186C374.828 194.348 375.243 194.557 375.787 195.104C375.916 195.442 375.795 195.634 375.366 195.315C374.698 194.793 374.458 194.59 374.218 194.388Z" fill="#5456a1" fill-rule="nonzero" opacity="1" stroke="none"/>
<path d="M227.142 67.8668C227.391 67.982 227.553 68.1825 227.715 68.3829C227.503 68.4172 227.291 68.4514 226.983 68.3067C226.886 68.1277 227.055 67.9521 227.142 67.8668Z" fill="#010101" fill-rule="nonzero" opacity="1" stroke="none"/>
<path d="M382.987 263.009C383.099 263.076 383.229 263.13 383.358 263.184C383.252 263.222 383.146 263.26 383.036 263.131C383.032 262.964 383.003 262.995 382.987 263.009Z" fill="#060608" fill-rule="nonzero" opacity="1" stroke="none"/>
<path d="M154.55 213.544C159.349 215.037 163.8 216.362 168.3 217.701C168.3 247.175 168.3 276.917 168.3 307.001C167.034 306.86 166.333 306.971 165.846 306.7C153.643 299.893 141.507 292.965 129.249 286.26C126.133 284.555 124.807 282.596 124.831 278.872C125.003 251.565 124.924 224.257 124.924 196.949C124.924 195.649 124.924 194.348 124.924 191.972C133.801 201.382 142.897 208.952 154.55 213.544Z" fill="#030303" fill-opacity="0" fill-rule="nonzero" opacity="1" stroke="none"/>
<path d="M213.347 228.598C213.996 229.996 214.359 231.179 215.012 233.31C209.648 230.147 205.406 227.646 200.391 224.69C202.82 223.49 204.361 222.729 204.601 222.61C208.029 224.95 210.545 226.667 213.347 228.598Z" fill="#595ba3" fill-rule="nonzero" opacity="1" stroke="none"/>
<path d="M222.003 256.101C222.476 256.751 222.629 257.347 222.575 258.206C221.701 258.006 221.034 257.544 220.368 257.083C220.806 256.738 221.245 256.393 222.003 256.101Z" fill="#2e328b" fill-rule="nonzero" opacity="1" stroke="none"/>
<path d="M288.031 293.238C288.031 293.238 287.788 293.414 287.286 293.277C285.691 292.219 284.599 291.299 283.507 290.378C283.507 290.378 283.232 290.309 282.952 289.919C282.008 288.946 281.344 288.361 280.68 287.777C280.68 287.777 280.76 287.793 281.03 287.745C281.39 287.372 281.481 287.049 281.572 286.725C281.572 286.725 281.641 286.656 281.941 286.652C282.28 286.347 282.318 286.045 282.357 285.743C282.357 285.743 282.46 285.466 282.828 285.522C283.235 285.299 283.275 285.02 283.315 284.741C283.315 284.741 283.447 284.463 283.832 284.523C284.31 284.29 284.404 283.998 284.497 283.705C284.497 283.705 284.584 283.612 285.021 283.691C288.427 284.899 291.431 285.947 294.343 287.21C295.153 287.561 295.687 288.549 296.348 289.245C296.348 289.245 296.289 289.27 295.995 289.281C295.534 289.6 295.368 289.909 295.203 290.217C295.203 290.217 295.026 289.999 294.784 290.085C294.12 290.55 293.697 290.929 293.274 291.307C293.274 291.307 293.174 291.2 292.867 291.198C292.048 291.54 291.536 291.885 291.023 292.229C291.023 292.229 290.763 292.398 290.258 292.311C289.18 292.562 288.605 292.9 288.031 293.238Z" fill="#0f1021" fill-opacity="0" fill-rule="nonzero" opacity="1" stroke="none"/>
<path d="M375.979 183.676C372.705 185.673 369.303 187.347 365.557 189.162C364.259 188.298 363.307 187.292 361.889 185.796C364.181 184.561 367.309 182.876 370.775 181.074C372.692 181.756 374.272 182.554 375.979 183.676Z" fill="#d0d0e2" fill-rule="nonzero" opacity="1" stroke="none"/>
<path d="M259.822 290.817C261.555 288.633 263.289 286.449 265.26 283.984C266.865 284.105 268.233 284.506 268.704 284.644C267.707 289.459 266.789 293.898 265.783 298.8C265.42 299.057 265.144 298.851 264.831 298.036C263.136 295.224 261.479 293.02 259.822 290.817Z" fill="#545586" fill-rule="nonzero" opacity="1" stroke="none"/>
<path d="M280.357 287.86C281.344 288.361 282.008 288.946 282.839 289.834C275.555 291.086 280.444 297.033 278.592 300.752C276.936 301.16 274.926 301.656 272.916 302.152C272.538 301.891 272.159 301.631 271.781 301.37C274.532 296.895 277.283 292.419 280.357 287.86Z" fill="#5355a0" fill-rule="nonzero" opacity="1" stroke="none"/>
<path d="M296.689 289.184C295.687 288.549 295.153 287.561 294.343 287.21C291.431 285.947 288.427 284.899 285.071 283.652C285.89 283.335 288.038 282.728 288.157 283C289.391 285.848 291.411 285.395 293.892 285.276C295.452 285.202 298.885 285.512 296.689 289.184Z" fill="#5355a0" fill-rule="nonzero" opacity="1" stroke="none"/>
<path d="M293.692 307.935C292.511 307.035 291.289 306.209 291.104 305.194C290.994 304.589 292.431 303.202 293.32 303.055C294.197 302.91 295.258 303.885 296.239 304.369C295.522 305.556 294.805 306.743 293.692 307.935Z" fill="#5759a2" fill-rule="nonzero" opacity="1" stroke="none"/>
<path d="M264.969 304.986C265.323 303.574 265.678 302.163 266.408 300.737C267.472 301.177 268.161 301.633 268.962 302.833C269.1 304.194 269.126 304.81 269.152 305.426C268.328 305.7 267.505 305.974 266.241 305.941C265.523 305.417 265.246 305.201 264.969 304.986Z" fill="#545586" fill-rule="nonzero" opacity="1" stroke="none"/>
<path d="M283.64 290.732C284.599 291.299 285.691 292.219 287.138 293.304C286.514 294.189 285.536 294.91 284.374 295.765C284.133 293.89 283.953 292.488 283.64 290.732Z" fill="#5355a0" fill-rule="nonzero" opacity="1" stroke="none"/>
<path d="M360.963 287.492C361.817 287.308 362.654 287.456 363.742 287.81C363.312 288.572 362.631 289.127 361.949 289.681C361.615 289.062 361.28 288.442 360.963 287.492Z" fill="#e1e1e9" fill-rule="nonzero" opacity="1" stroke="none"/>
<path d="M375.256 195.342C374.885 195.932 374.196 196.176 373.507 196.42C373.614 195.863 373.72 195.305 374.023 194.567C374.458 194.59 374.698 194.793 375.256 195.342Z" fill="#5456a1" fill-rule="nonzero" opacity="1" stroke="none"/>
<path d="M288.367 293.283C288.605 292.9 289.18 292.562 290.104 292.331C289.871 292.735 289.287 293.032 288.367 293.283Z" fill="#5355a0" fill-rule="nonzero" opacity="1" stroke="none"/>
<path d="M269.511 305.262C269.126 304.81 269.1 304.194 269.103 303.116C269.378 303.469 269.624 304.284 269.511 305.262Z" fill="#55568b" fill-rule="nonzero" opacity="1" stroke="none"/>
<path d="M291.346 292.28C291.536 291.885 292.048 291.54 292.887 291.268C292.698 291.671 292.183 292 291.346 292.28Z" fill="#5355a0" fill-rule="nonzero" opacity="1" stroke="none"/>
<path d="M293.582 291.35C293.697 290.929 294.12 290.55 294.866 290.199C294.757 290.615 294.324 291.004 293.582 291.35Z" fill="#5355a0" fill-rule="nonzero" opacity="1" stroke="none"/>
<path d="M283.154 284.76C283.275 285.02 283.235 285.299 282.959 285.456C282.687 285.088 282.777 284.903 283.154 284.76Z" fill="#5355a0" fill-rule="nonzero" opacity="1" stroke="none"/>
<path d="M282.141 285.773C282.318 286.045 282.28 286.347 281.972 286.614C281.562 286.26 281.636 286.001 282.141 285.773Z" fill="#5355a0" fill-rule="nonzero" opacity="1" stroke="none"/>
<path d="M281.312 286.756C281.481 287.049 281.39 287.372 281.019 287.705C280.843 287.405 280.947 287.097 281.312 286.756Z" fill="#5355a0" fill-rule="nonzero" opacity="1" stroke="none"/>
<path d="M264.847 305.183C265.246 305.201 265.523 305.417 265.913 305.876C265.801 306.146 265.578 306.175 265.068 306.021C264.782 305.839 264.726 305.38 264.847 305.183Z" fill="#55568b" fill-rule="nonzero" opacity="1" stroke="none"/>
<path d="M291.496 219.691C291.554 219.947 291.302 220.409 290.835 220.625C290.809 220.22 290.997 220.058 291.496 219.691Z" fill="#2e328b" fill-rule="nonzero" opacity="1" stroke="none"/>
<path d="M284.294 283.692C284.404 283.998 284.31 284.29 283.973 284.464C283.675 284.029 283.795 283.806 284.294 283.692Z" fill="#5355a0" fill-rule="nonzero" opacity="1" stroke="none"/>
<path d="M295.478 290.219C295.368 289.909 295.534 289.6 295.98 289.309C296.092 289.625 295.923 289.923 295.478 290.219Z" fill="#5355a0" fill-rule="nonzero" opacity="1" stroke="none"/>
<path d="M387.089 356.972C396.35 351.392 405.842 350.577 415.649 353.737C424.101 356.46 429.575 363.376 429.847 371.121C430.107 378.525 425.088 385.649 416.546 388.469C407.998 391.292 399.204 391.472 390.806 387.523C376.959 381.011 375.184 367.346 387.089 356.972Z" fill="#010102" fill-opacity="0" fill-rule="nonzero" opacity="1" stroke="none"/>
<path d="M329.839 388.973C323.082 388.975 316.803 388.975 309.817 388.975C309.817 377.745 309.751 367.017 309.943 356.293C309.958 355.449 311.757 353.937 312.745 353.921C320.716 353.797 328.723 353.532 336.655 354.141C345.8 354.844 351.742 361.746 351.965 370.775C352.201 380.323 347.372 386.258 337.707 388.115C335.279 388.581 332.783 388.695 329.839 388.973Z" fill="#010103" fill-opacity="0" fill-rule="nonzero" opacity="1" stroke="none"/>
<path d="M110.135 50.282C110.372 50.1289 110.618 50.277 110.872 50.726C110.637 50.8766 110.391 50.7287 110.135 50.282Z" fill="#fbfbfc" fill-rule="nonzero" opacity="1" stroke="none"/>
<path d="M383.017 261.992C382.913 261.917 382.791 261.858 382.669 261.798C382.763 261.772 382.857 261.746 382.958 261.88C382.966 262.041 382.998 262.006 383.017 261.992Z" fill="#2e328b" fill-rule="nonzero" opacity="1" stroke="none"/>
<path d="M259.439 290.896C261.479 293.02 263.136 295.224 264.735 297.782C261.693 296.122 256.617 296.941 255.953 291.352C256.961 290.976 258.009 290.975 259.439 290.896Z" fill="#1e2056" fill-rule="nonzero" opacity="1" stroke="none"/>
<path d="M254.072 289.206C254.25 289.157 254.53 289.341 254.907 289.769C254.728 289.821 254.451 289.63 254.072 289.206Z" fill="#2e328b" fill-rule="nonzero" opacity="1" stroke="none"/>
</g>
</svg>
